inDegrees=no
num_controls=7
num_derivatives=13
num_iterations=138
num_multipliers=7
num_parameters=0
num_slacks=7
num_states=26
objective=5.182033
objective_accelerations=0.470397
objective_balance=0.046330
objective_effort=0.444081
objective_height=4.159350
objective_ligament=0.061876
solver_duration=1533.629848
status=Solve_Succeeded
success=true
DataType=double
version=3
OpenSimVersion=4.4-2022-07-23-0e9fedc
endheader
time	/jointset/ground_pelvis/pelvis_tilt/value	/jointset/ground_pelvis/pelvis_tx/value	/jointset/ground_pelvis/pelvis_ty/value	/jointset/hip_l/hip_flexion_l/value	/jointset/hip_l/hip_adduction_l/value	/jointset/hip_l/hip_rotation_l/value	/jointset/back/lumbar_extension/value	/jointset/patellofemoral_l/patellar_flexion_l/value	/jointset/knee_l/knee_flexion_l/value	/jointset/knee_l/knee_adduction_l/value	/jointset/knee_l/knee_rotation_l/value	/jointset/ankle_l/ankle_angle_l/value	/jointset/subtalar_l/subtalar_angle_l/value	/jointset/ground_pelvis/pelvis_tilt/speed	/jointset/ground_pelvis/pelvis_tx/speed	/jointset/ground_pelvis/pelvis_ty/speed	/jointset/hip_l/hip_flexion_l/speed	/jointset/hip_l/hip_adduction_l/speed	/jointset/hip_l/hip_rotation_l/speed	/jointset/back/lumbar_extension/speed	/jointset/patellofemoral_l/patellar_flexion_l/speed	/jointset/knee_l/knee_flexion_l/speed	/jointset/knee_l/knee_adduction_l/speed	/jointset/knee_l/knee_rotation_l/speed	/jointset/ankle_l/ankle_angle_l/speed	/jointset/subtalar_l/subtalar_angle_l/speed	/forceset/tau_hip_flexion_l	/forceset/tau_hip_adduction_l	/forceset/tau_hip_rotation_l	/forceset/tau_knee_flexion_l	/forceset/tau_ankle_angle_l	/forceset/tau_subtalar_angle_l	/forceset/tau_lumbar_extension	lambda_cid13_p0	lambda_cid13_p1	lambda_cid13_p2	lambda_cid13_p3	lambda_cid13_p4	lambda_cid13_p5	lambda_cid14_p0	/jointset/ground_pelvis/pelvis_tilt/accel	/jointset/ground_pelvis/pelvis_tx/accel	/jointset/ground_pelvis/pelvis_ty/accel	/jointset/hip_l/hip_flexion_l/accel	/jointset/hip_l/hip_adduction_l/accel	/jointset/hip_l/hip_rotation_l/accel	/jointset/back/lumbar_extension/accel	/jointset/patellofemoral_l/patellar_flexion_l/accel	/jointset/knee_l/knee_flexion_l/accel	/jointset/knee_l/knee_adduction_l/accel	/jointset/knee_l/knee_rotation_l/accel	/jointset/ankle_l/ankle_angle_l/accel	/jointset/subtalar_l/subtalar_angle_l/accel	gamma_cid13_p0	gamma_cid13_p1	gamma_cid13_p2	gamma_cid13_p3	gamma_cid13_p4	gamma_cid13_p5	gamma_cid14_p0
1.5	-0.4658033244779116	-0.09306831659415341	0.7777518952773649	1.215880386475541	-0.3081923032084802	-0.1012830465607383	-0.339981762600672	0.5447727442726533	0.5447727442726784	-0.1744296659930437	0.1745095005622207	-0.05182845328663286	-0.06363249012383165	0.8014142272966618	0.3222032299867192	0.4192664519685627	-2.19283368944408	0.0687402312347576	-0.4542500186169882	0.5695133568523499	-1.352757891050132	-1.352757891050574	0.001151265538894345	-0.0003876606989409469	-0.01320808075740092	0.07801464045242136	-0.2572263687165707	0.01127606002643072	-0.01801548468768647	-0.1735714660591935	0.1765355929215923	0.04577731813339107	0.2284085366784109	17.0945839246465	-25.55532854748265	6.734262127751911	-6.132415610360908	-614.2019789050235	-65.27143285707854	-35.67978373127491	0.5489654468610663	0.658693710354184	-0.1834746157053869	-1.493794851215084	0.3789512675807276	-0.2129113339695698	1.663839241019742	-0.8740351361785007	-0.8740351361785612	0.02532545958761101	-0.03771851525775317	0.1519335566597591	0.3980551471152495	-3.916771451295932e-08	6.073350418253421e-07	-2.416077948346238e-08	1.258108010498982e-07	1.045824523544977e-07	-5.743324615523235e-08	7.980156819386237e-08
1.51	-0.4577622545115852	-0.08981364812413267	0.7819345894063328	1.193879548067004	-0.3074866525127244	-0.1058366130870678	-0.334204815340201	0.5312034213933009	0.5312034213932935	-0.1744178017781594	0.1745050923600287	-0.05195295696499051	-0.06283313591770423	0.8066869984711451	0.3286923608739393	0.4171896396045587	-2.207030441567453	0.07238821236809979	-0.4563998566010377	0.5857999842343373	-1.360917612770576	-1.360917612770846	0.001218391333618259	-0.0004975329104511394	-0.01168107874121234	0.0818546684815839	-0.2490518286151012	0.01041547081259516	-0.0180360495520485	-0.1726883949856975	0.1751853448743388	0.04480297226069586	0.2221525350523654	16.87622797984172	-25.21207291887345	6.814476812123426	-5.902336040123621	-610.1947788928912	-65.43471787043909	-36.24291152009785	0.4995201411307316	0.6383330153456866	-0.2321705601593728	-1.337078922121235	0.3573683329264802	-0.2064132216350111	1.599657835472549	-0.7585965482193896	-0.7585965481934029	-0.002950707605751756	0.001898018637847785	0.1548190407062811	0.3766483689865427	-4.167199907598263e-08	6.379642789500227e-07	-2.712582805291396e-08	1.27614045039864e-07	1.151526308687122e-07	-5.18848986639887e-08	8.212686897238328e-08
1.52	-0.4496718393958377	-0.08649522629775176	0.7860940382089793	1.171745849431387	-0.3067445926462901	-0.1104097566315102	-0.3282672851361709	0.5175581701251301	0.5175581701250295	-0.1744053376747479	0.1744994893541755	-0.05206184351986878	-0.06199544708365132	0.8112832571812104	0.334953901258759	0.414617386704242	-2.219405734859706	0.07602206537012125	-0.4581654222255901	0.6016299455637054	-1.367943568820694	-1.367943568820791	0.001271243247498453	-0.0006266214125298743	-0.01008465606070979	0.0856815660375312	-0.2408772885137112	0.009554881598541126	-0.01805661441678537	-0.1718053239122378	0.1738350968269857	0.04382862638777366	0.2158965334263392	16.64904051805074	-24.86845878848679	6.895991006340689	-5.64321828057013	-606.315267639059	-65.63415326536337	-36.78057712766019	0.4136629539772771	0.6131756098742334	-0.2825627229679037	-1.129503084991249	0.3761256413164965	-0.1360568620702835	1.572506030495889	-0.647282002113305	-0.6472820021133815	0.02247068341864518	-0.04156177337131281	0.1658176895226592	0.3954290524720998	-3.983797623003385e-08	6.596591981081416e-07	-4.20118593622795e-08	1.236269602080247e-07	1.307387987458853e-07	-4.709035706155507e-08	8.521376204211285e-08
1.53	-0.4415388583913948	-0.08311540841832307	0.7902253221388472	1.149497518778203	-0.3059663319912165	-0.1149986316205167	-0.3221739678147172	0.5038482728900601	0.5038482728900147	-0.1743925286748998	0.1744924766251759	-0.05215450589417418	-0.06111963485609152	0.8151951419499218	0.3409631114992256	0.4115583785616608	-2.229940669238367	0.07962536117911541	-0.4595483336869071	0.6169388342242342	-1.373836662656346	-1.373836662656617	0.001290842649543044	-0.0007760782891320328	-0.008438196140450558	0.08947611276109055	-0.232567395269789	0.008568186210709546	-0.01811343615277787	-0.1709533545786443	0.172526981837038	0.04274443437980607	0.2094794560087898	16.4339451986927	-24.48223432437037	6.974114325323646	-5.357346749963705	-602.3902951250261	-65.77095266899117	-37.29277255214053	0.3622829681673238	0.5878308742858909	-0.329690395623837	-0.9675251202762359	0.3516278690341216	-0.1301215146641639	1.495877608260458	-0.5304589835893867	-0.5304589836153907	-0.008131637058053233	-0.001596237954022943	0.1655025290941967	0.3706565935314303	-3.339450176205225e-08	6.718614044267884e-07	-6.956393483280348e-08	1.134876510030179e-07	1.516544553212019e-07	-4.309673421598211e-08	8.910984692125162e-08
1.54	-0.4333702921932972	-0.07967689100785916	0.7943235918801461	1.127153431480028	-0.3051521991143828	-0.119599478369482	-0.3159304021417731	0.4900854175348056	0.4900854175347624	-0.1743794909221782	0.1744839776086965	-0.05223041519211323	-0.0602060393390495	0.8184002959126264	0.3466938074658037	0.4080145489903867	-2.238557063855909	0.08319650972188157	-0.4605597742082981	0.6316796158619347	-1.378535192863923	-1.378535192864367	0.001316993825358756	-0.0009238788916999101	-0.006734040787524138	0.09323822393399091	-0.2242575020259765	0.007581490822723284	-0.01817025788913827	-0.1701013852450613	0.1712188668470268	0.04166024237167984	0.2030623785911983	16.21186236814201	-24.09568080849402	7.05320673443192	-5.051071923943327	-598.5687483820864	-65.94255092075535	-37.7787105933163	0.2723167927757996	0.5574727550966777	-0.3795270087064511	-0.7457951327673433	0.3696961880708103	-0.0617626740852549	1.458884625930259	-0.4083692764985677	-0.4083692764985448	0.02378103817265827	-0.0412305185642909	0.1773567760562219	0.3889419423402107	-2.821713287723522e-08	6.828286759193412e-07	-9.274360285467658e-08	1.045143997708671e-07	1.710491229153026e-07	-3.789971462772439e-08	9.212564331669243e-08
1.55	-0.4251732332084661	-0.07618254258582303	0.7983840423736213	1.10473278357622	-0.3043025942688591	-0.1242085304041218	-0.3095424752805753	0.476281464964928	0.4762814649649275	-0.1743663154820087	0.1744739386164992	-0.05228909777259375	-0.05925507941375674	0.8208876102434333	0.3521206192414799	0.4039973180122129	-2.245238636564212	0.08671322218008866	-0.4611848975009055	0.645794271823676	-1.382051397464849	-1.382051397465019	0.001312047434615245	-0.001086412134855409	-0.004998107410119071	0.09694172029637547	-0.2158615783042538	0.006458285797120675	-0.0182663545374653	-0.16931890157639	0.1699748055281806	0.04048622915565597	0.1965287608075426	16.00324187118315	-23.67439372709439	7.128953262297838	-4.708488663250336	-594.7933281547937	-66.06795364575416	-38.23739557096155	0.218356318197433	0.5270152634255355	-0.4245161976355472	-0.5792517893563386	0.3408748553701371	-0.0529217845993827	1.371033398089452	-0.2926765531743474	-0.2926765531331491	-0.01341876008576729	-0.004066341155633994	0.1723655531139314	0.359152692721623	-2.449853781649899e-08	6.923730877209595e-07	-1.108854970770174e-07	9.688465011613736e-08	1.8869134668322e-07	-3.131617270550389e-08	9.41271942852639e-08
1.56	-0.4169550175673387	-0.07263558007110577	0.8024019815462629	1.082255337255415	-0.3034181790826171	-0.12882184059725	-0.3030167463964052	0.4624484642488005	0.4624484642488269	-0.1743533467622345	0.1744622139690331	-0.05233029023238703	-0.05826746468293344	0.8226316271728253	0.3572166260020301	0.3995122848236161	-2.249916747252291	0.09015857786528912	-0.4614114059035493	0.6592400204571605	-1.384344822117153	-1.384344822117048	0.001275649748358901	-0.001261009936585983	-0.003236016651458063	0.1005691850401264	-0.2074656545826318	0.005335080771471055	-0.01836245118600131	-0.1685364179077062	0.1687307442093243	0.0393122159395865	0.1899951430238007	15.78896197806221	-23.25262113563792	7.205199638769288	-4.350832902429212	-591.1032469861395	-66.22627866228588	-38.66811574740149	0.1236573124927595	0.4913117520716436	-0.4730874507910598	-0.3451027287226969	0.3554248334693917	0.01796030390728007	1.325103160278899	-0.1638132867739376	-0.1638132867739368	0.01749077906990181	-0.04364343027913043	0.1825882523075495	0.3737356186134023	-2.037824133062026e-08	6.979220094054519e-07	-1.287452279274697e-07	8.851414551653846e-08	2.066442028969083e-07	-2.474137624859958e-08	9.570000918870122e-08
1.57	-0.4087230919162026	-0.06903937827812061	0.8063727893979044	1.059741119173639	-0.3024996994950823	-0.1334354136636934	-0.296360076575607	0.448598581314581	0.448598581314564	-0.1743409429384937	0.1744486306593462	-0.05235378863333927	-0.05724399656260246	0.8236250955583371	0.3619616127441442	0.3945752914967796	-2.25258070365932	0.09352283594775915	-0.4612393562382002	0.6719688486952983	-1.385419104280725	-1.385419104280416	0.001202198063431864	-0.001454941198503329	-0.001459496032897584	0.1041092832771837	-0.1990352786482206	0.00408277417251316	-0.01850815167705581	-0.1679004902845313	0.167681200179013	0.03803812312117241	0.1834026106224237	15.62353609256258	-22.79769084457528	7.278162021176115	-3.996183844271221	-587.5684597481928	-66.34228073080533	-39.07033629931287	0.06793085218591007	0.4567889308836089	-0.5150572657067871	-0.1751127430509501	0.3246543431997395	0.0265123477537017	1.228008404412329	-0.04735608125175122	-0.0473560812209415	-0.02008334812602342	-0.0070828132981217	0.1758077527898645	0.3417827730881783	-1.575581806331341e-08	6.984765684435369e-07	-1.462522545630613e-07	7.921769723585312e-08	2.249853496678099e-07	-1.817751162334052e-08	9.673690401072087e-08
1.58	-0.4004850837311049	-0.06539758725859381	0.810292016917862	1.037210647398502	-0.3015480317172078	-0.1380453292234954	-0.2895798713226677	0.4347443314787053	0.4347443314786559	-0.1743293376727716	0.1744331450692077	-0.052359397071011	-0.05618560029053396	0.8238481339680976	0.3663344713103617	0.3891962184868336	-2.253167485920656	0.09679621593278405	-0.4606799045766541	0.6839471068866877	-1.385218202448408	-1.385218202447894	0.001115938144440451	-0.001641466026427455	0.000341976032048776	0.107554815387702	-0.1906049027138738	0.002830467573583375	-0.0186538521681096	-0.1672645626613587	0.1666316561487157	0.03676403030278854	0.1768100782209667	15.45398927363983	-22.34207282047481	7.351053370009168	-3.633041467726677	-584.0982069540197	-66.48859483100296	-39.44381581353647	-0.03042868265763969	0.4168861168923796	-0.5615033874129315	0.07033210041576513	0.3372492139802821	0.09544070314652789	1.174989150929134	0.09122351240380838	0.09122351240380269	0.01492913225686296	-0.04216214348031845	0.1875785415847426	0.3548223933055145	-1.101017771413076e-08	6.957506792112049e-07	-1.629494007589127e-07	6.957471122316423e-08	2.431765188889797e-07	-1.184615452916998e-08	9.735812998138444e-08
